<?xml version="1.0" encoding="UTF-8"?>
<svg width="63px" height="63px" viewBox="0 0 63 63" version="1.1" xmlns="http://www.w3.org/2000/svg" xmlns:xlink="http://www.w3.org/1999/xlink">
    <!-- Generator: Sketch 50.2 (55047) - http://www.bohemiancoding.com/sketch -->
    <title>atom [#1298] copy</title>
    <desc>Created with Sketch.</desc>
    <defs></defs>
    <g id="view1" stroke="none" stroke-width="1" fill="none" fill-rule="evenodd">
        <g id="palBizSol" transform="translate(-89.000000, -328.000000)" fill="#000000">
            <g id="App" transform="translate(18.000000, 15.000000)">
                <g id="ourWorksButton" transform="translate(23.000000, 297.000000)">
                    <path d="M99.6842749,53.0949866 C95.2013295,58.8434087 90.5140423,63.4446607 85.0879807,67.6719038 C89.583501,70.2679654 100.130683,74.9729342 103.547907,71.5565674 C105.880548,69.2245121 104.808539,61.9297676 99.6842749,53.0949866 M79.5047331,64.0418177 C85.748162,59.475138 91.4634459,53.7612881 96.028128,47.5194258 C91.4823082,41.2995639 85.7701681,35.5794282 79.5047331,30.9970338 C73.2172922,35.592 67.5145832,41.3184215 62.9781946,47.5194258 C67.5428767,53.7644311 73.2613043,59.475138 79.5047331,64.0418177 M73.9183419,67.6719038 C68.4797054,63.432089 63.7924182,58.830837 59.3220477,53.0949866 C54.1977833,61.9297676 53.1257746,69.2245121 55.4584152,71.5565674 C58.8442021,74.9383619 69.3002165,70.3433958 73.9183419,67.6719038 M59.3220477,41.9438649 C63.8018493,36.1954428 68.4891366,31.5973338 73.9183419,27.3669477 C69.429109,24.7708861 58.8787831,20.0627744 55.4584152,23.4822841 C53.1257746,25.8143394 54.1977833,33.1090839 59.3220477,41.9438649 M85.0879807,27.3669477 C90.5266172,31.6036196 95.2107607,36.2048716 99.6842749,41.9438649 C111.058256,22.3288282 102.457036,17.3284238 85.0879807,27.3669477 M103.642219,47.5194258 C120.759777,74.2657746 106.047165,88.6541159 79.5047331,71.6728559 C53.0251755,88.6132578 38.1899586,74.3537767 55.3672473,47.5194258 C38.3660069,20.9585099 52.7013723,6.21816025 79.5047331,23.3659956 C106.037734,6.3910215 120.775496,20.7510764 103.642219,47.5194258 M82.8559392,44.1784894 C84.6950157,46.0202473 84.6950157,49.0060325 82.8559392,50.8446475 C81.013719,52.6864055 78.0271845,52.6864055 76.1849643,50.8446475 C74.3427441,49.0060325 74.3427441,46.0202473 76.1849643,44.1784894 C78.0271845,42.3367314 81.013719,42.3367314 82.8559392,44.1784894" id="atom-[#1298]-copy"></path>
                </g>
            </g>
        </g>
    </g>
</svg>