<?xml version="1.0" encoding="UTF-8"?>
<svg width="67px" height="63px" viewBox="0 0 67 63" version="1.1" xmlns="http://www.w3.org/2000/svg" xmlns:xlink="http://www.w3.org/1999/xlink">
    <!-- Generator: Sketch 50.2 (55047) - http://www.bohemiancoding.com/sketch -->
    <title>diamond [#767] copy 2</title>
    <desc>Created with Sketch.</desc>
    <defs></defs>
    <g id="view1" stroke="none" stroke-width="1" fill="none" fill-rule="evenodd">
        <g id="palBizSol" transform="translate(-85.000000, -150.000000)" fill="#000000">
            <g id="App" transform="translate(18.000000, 15.000000)">
                <g id="HomeButton" transform="translate(23.000000, 116.000000)">
                    <path d="M79.7284166,70.5810551 C78.4035203,72.3409982 76.048149,72.5270715 74.7098698,70.7826345 L54,46 L100,46 L79.7284166,70.5810551 Z M59.8590001,28.716 C60.4721887,27.649 61.544431,27 62.6937408,27 L92.9544297,27 C94.0836349,27 95.1357727,27.6196667 95.7556628,28.6536667 L103,38 L53,38 L59.8590001,28.716 Z M109.915119,36.2917608 L100.199999,22.2057978 C98.9638342,19.9891059 96.8533081,19 94.5853301,19 L60.5154091,19 C58.2105806,19 56.0665541,20.03602 54.840439,22.3152641 L45.0248177,37.2965048 C43.4402481,40.244275 43.7149515,43.9700376 45.698176,46.5698615 L72.4650067,79.3941038 C75.1450399,82.9048434 79.8585481,82.8579293 82.5117809,79.3159136 L109.345612,45.7136789 C111.318787,43.0786694 111.54994,39.223893 109.915119,36.2917608 L109.915119,36.2917608 Z" id="diamond-[#767]-copy-2"></path>
                </g>
            </g>
        </g>
    </g>
</svg>