<?xml version="1.0" encoding="UTF-8"?>
<svg width="67px" height="63px" viewBox="0 0 67 63" version="1.1" xmlns="http://www.w3.org/2000/svg" xmlns:xlink="http://www.w3.org/1999/xlink">
    <!-- Generator: Sketch 50.2 (55047) - http://www.bohemiancoding.com/sketch -->
    <title>star [#1260] copy 2</title>
    <desc>Created with Sketch.</desc>
    <defs></defs>
    <g id="view1" stroke="none" stroke-width="1" fill="none" fill-rule="evenodd">
        <g id="palBizSol" transform="translate(-256.000000, -150.000000)" fill="#000000">
            <g id="App" transform="translate(18.000000, 15.000000)">
                <g id="servicesButton" transform="translate(194.000000, 116.000000)">
                    <path d="M77,56 C73.1395,56 70,52.8605 70,49 C70,45.1395 73.1395,42 77,42 C80.8605,42 84,45.1395 84,49 C84,52.8605 80.8605,56 77,56 L77,56 Z M78,36 C69.71625,36 63,41.82075 63,49 C63,56.17925 69.71625,62 78,62 C86.28375,62 93,56.17925 93,49 C93,41.82075 86.28375,36 78,36 L78,36 Z M100.039899,54.1000633 L100.039899,54.1000633 C101.792459,58.2072574 99.736363,62.9031724 95.4471088,64.5827585 L95.4471088,64.5827585 L92.6791487,65.6701606 C92.1118253,66.9618835 91.7215646,67.8553541 91.1542412,69.1505401 C89.5028603,72.9218169 85.0799057,75.4290753 79.2982658,73.1018963 L76.5375327,71.9937157 L73.7659591,73.0811179 L73.7659591,73.0811179 C70.0946178,74.5182895 65.3753542,73.5624838 62.8278191,68.6795634 L61.6931722,66.0268562 C60.3344868,65.4796921 59.413038,65.1091442 58.0615796,64.5654432 C54.126451,62.9828229 51.5102589,58.7440324 53.9349341,53.2031297 L55.0948757,50.5573487 L53.9602288,47.9011785 L53.9602288,47.9011785 C52.2076692,43.7939845 54.2637649,39.0980695 58.553019,37.4184834 L58.553019,37.4184834 L61.3209792,36.3310813 C61.9316649,34.9389295 62.3219256,34.048922 62.8458867,32.8507018 C64.5081082,29.0517205 68.9455168,26.5825557 74.7018621,28.8958826 L77.4625951,30.0075262 L80.2341688,28.920124 L80.2341688,28.920124 C84.5198094,27.2405379 89.4197492,29.2110214 91.1723088,33.3216785 L91.1723088,33.3216785 L92.3069557,35.9743857 C93.7595927,36.5596435 94.6882686,36.9336544 95.9385482,37.4357987 C99.9025851,39.0288082 102.479028,43.281451 100.065194,48.7981122 L98.9052522,51.4438932 L100.039899,54.1000633 Z M108.501411,53.9881617 C107.660609,52.0540642 107.671435,49.8858392 108.53028,47.9585281 L110.345401,43.8901372 C112.135263,39.8760368 110.128886,35.2613482 105.859922,33.5783441 L101.533221,31.871588 C99.4835405,31.0606243 97.8596743,29.5201327 97.0188724,27.5894284 L95.6006959,24.3252149 C93.8505289,20.300935 88.9608872,18.3702307 84.6774889,20.0159101 L81.2096322,21.3494194 C79.152735,22.1400241 76.8468449,22.1298446 74.7971648,21.3222741 L70.4704634,19.615518 C66.2014994,17.9325139 61.2938148,19.8191072 59.5039533,23.8332076 L57.6888317,27.9015985 C56.8263783,29.8289097 55.1916862,31.3558287 53.134789,32.1464334 L49.6633238,33.4799427 C45.383534,35.1256221 43.3302454,39.7233449 45.0804123,43.7510179 L46.4985889,47.0118383 C47.3393907,48.9459358 47.3285649,51.1141608 46.4697201,53.0414719 L44.6545985,57.1098628 C42.864737,61.1239632 44.871114,65.7386518 49.140078,67.4216559 L53.4667794,69.128412 C55.5164595,69.9393757 57.1403257,71.4764742 57.9811276,73.4105716 L59.3993041,76.6747851 C61.1494711,80.699065 66.0391128,82.6297693 70.3225111,80.9840899 L73.7903678,79.6505806 C75.847265,78.8599759 78.1531551,78.8701554 80.2028352,79.6777259 L84.5295366,81.384482 C88.7985006,83.0674861 93.7061852,81.1808928 95.4960467,77.1667924 L97.3111683,73.0984015 C98.1736217,71.1710903 99.8119224,69.6441713 101.865211,68.8535666 L105.336676,67.5200573 C109.616466,65.8743779 111.669755,61.2766551 109.919588,57.2489821 L108.501411,53.9881617 Z" id="star-[#1260]-copy-2"></path>
                </g>
            </g>
        </g>
    </g>
</svg>