<?xml version="1.0" encoding="UTF-8"?>
<svg width="63px" height="63px" viewBox="0 0 63 63" version="1.1" xmlns="http://www.w3.org/2000/svg" xmlns:xlink="http://www.w3.org/1999/xlink">
    <!-- Generator: Sketch 50.2 (55047) - http://www.bohemiancoding.com/sketch -->
    <title>airplane_mode [#1406] copy 2</title>
    <desc>Created with Sketch.</desc>
    <defs></defs>
    <g id="view1" stroke="none" stroke-width="1" fill="none" fill-rule="evenodd">
        <g id="palBizSol" transform="translate(-256.000000, -328.000000)" fill="#000000">
            <g id="App" transform="translate(18.000000, 15.000000)">
                <g id="contactUsButton" transform="translate(194.000000, 297.000000)">
                    <path d="M98.4737375,28.9830256 L60.5162375,66.9391023 L56.0621375,62.4851693 L94.0196375,24.5290927 C95.2481375,23.2974888 97.2420875,23.2974888 98.4737375,24.5290927 C99.7053875,25.7575466 99.7053875,27.7514218 98.4737375,28.9830256 L98.4737375,28.9830256 Z M96.4923875,68.6746872 C97.2830375,70.5929653 95.8718375,72.7002362 93.7959875,72.7002362 L93.7739375,72.7002362 C92.5926875,72.7002362 91.5248375,71.9852131 91.0775375,70.8890542 L83.6309375,52.7362849 L88.0913375,48.2729023 L96.4923875,68.6746872 Z M52.1057375,31.8840668 C51.0126875,31.4367836 50.3007875,30.3721235 50.3007875,29.187768 C50.3007875,27.1119958 52.4081375,25.7008487 54.3296375,26.494619 L74.7290375,34.9079535 L70.2717875,39.3650363 L52.1057375,31.8840668 Z M105.154888,22.3021262 L100.700787,17.8450433 C98.2406375,15.3849856 94.2527375,15.3849856 91.7925875,17.8450433 L79.1799875,30.4603202 L57.5205875,21.558754 C51.0756875,18.9097034 44.0007875,23.6471257 44.0007875,30.6178143 C44.0007875,33.1692187 45.5411375,35.4717823 47.9036375,36.4419459 L65.8176875,43.8189693 L53.8319375,55.8042698 C52.6034375,57.0327238 50.6094875,57.0327238 49.3778375,55.8042698 L49.3778375,55.8042698 C48.1493375,54.572666 46.1553875,54.572666 44.9237375,55.8042698 L44.9237375,55.8042698 C43.6920875,57.0327238 43.6920875,59.026599 44.9237375,60.2582028 C57.2685875,72.6025899 59.8830875,75.2169919 62.7432875,78.0770846 C63.9717875,79.3055385 65.9688875,79.3055385 67.1973875,78.0770846 L67.1973875,78.0770846 C68.4290375,76.8454808 68.4290375,74.8516056 67.1973875,73.6231516 L67.1973875,73.6231516 C65.9688875,72.3915478 65.9688875,70.3976726 67.1973875,69.1660688 L79.1831375,57.1839181 L86.5604375,75.0972964 C87.5306375,77.4597078 89.8301375,79 92.3847875,79 C99.3525875,79 104.093337,71.9253653 101.444188,65.480707 L92.5422875,43.8221192 L105.154888,31.2099921 C107.615037,28.7499344 107.615037,24.7621839 105.154888,22.3021262 L105.154888,22.3021262 Z" id="airplane_mode-[#1406]-copy-2"></path>
                </g>
            </g>
        </g>
    </g>
</svg>